<?xml version="1.0" encoding="utf-8"?>
<!-- Generator: Adobe Illustrator 16.0.4, SVG Export Plug-In . SVG Version: 6.00 Build 0)  -->
<!DOCTYPE svg PUBLIC "-//W3C//DTD SVG 1.1//EN" "http://www.w3.org/Graphics/SVG/1.1/DTD/svg11.dtd">
<svg version="1.1" id="Group_3_1_" xmlns="http://www.w3.org/2000/svg" xmlns:xlink="http://www.w3.org/1999/xlink" x="0px" y="0px"
	 width="91.339px" height="17.323px" viewBox="0 0 91.339 17.323" enable-background="new 0 0 91.339 17.323" xml:space="preserve">
<g id="Rounded_Rectangle_1_copy_6">
	<g>
		<path fill="#E32521" d="M8.345-0.002c-0.458,0-0.829,0.375-0.829,0.838v6.427c0,0-7.516-0.638-7.516,4.356v4.027
			c0,0.571,1.119,1.677,1.658,1.677h5.857c1.24,0,1.658-0.725,1.658-1.744v-3.286c0-0.724-0.437-1.117-0.862-1.117
			c-0.403,0-0.795,0.36-0.795,1.117s0,3.354,0,3.354s-4.238,0-4.753,0s-1.105-0.596-1.105-1.118c0-0.521,0-0.199,0-2.351
			c0-3.54,6.329-3.238,6.687-3.238c0.458,0,0.829-0.375,0.829-0.838V0.836C9.174,0.373,8.803-0.002,8.345-0.002z M14.056,7.263
			V0.836c0-0.463-0.375-0.838-0.839-0.838s-0.839,0.375-0.839,0.838v7.265c0,0.463,0.375,0.838,0.839,0.838
			c0.362,0,6.768-0.302,6.768,3.238c0,2.151,0,1.829,0,2.351c0,0.522-0.597,1.118-1.119,1.118s-4.81,0-4.81,0s0-2.597,0-3.354
			s-0.397-1.117-0.805-1.117c-0.431,0-0.873,0.394-0.873,1.117v3.286c0,1.02,0.423,1.744,1.678,1.744h5.928
			c0.545,0,1.678-1.105,1.678-1.677v-4.027C21.663,6.625,14.056,7.263,14.056,7.263z"/>
	</g>
</g>
<g id="DanishBits_copy_2">
	<g>
		<path d="M30.709,1.689c-0.562-0.399-1.266-0.598-2.115-0.598h-2.832v9.7h2.525c1.303,0,2.292-0.451,2.967-1.355
			s1.012-2.104,1.012-3.602c0-0.89-0.12-1.704-0.358-2.44C31.67,2.656,31.27,2.088,30.709,1.689z M28.184,8.893h-0.16V2.976h0.299
			c0.575,0,0.989,0.25,1.242,0.751s0.379,1.162,0.379,1.982C29.943,7.832,29.357,8.893,28.184,8.893z M36.788,4.001l-1.774,6.79
			h1.622l0.248-1.348h1.302l0.241,1.348h1.724l-1.789-6.79H36.788z M37.107,8.226l0.436-2.37l0.425,2.37H37.107z M45.239,6.664
			l0.039,1.148h-0.083c-0.124-0.467-0.3-1.021-0.531-1.66L43.89,4.001h-1.612v6.79h1.52V8.124l-0.039-1.148h0.087
			c0.124,0.471,0.3,1.025,0.531,1.665l0.774,2.151h1.606v-6.79h-1.519V6.664z M49.368,10.791h1.597v-6.79h-1.597V10.791z
			 M55.849,6.649c-0.309-0.137-0.52-0.263-0.633-0.38c-0.117-0.117-0.175-0.256-0.175-0.418c0-0.166,0.071-0.307,0.214-0.423
			c0.143-0.117,0.312-0.175,0.506-0.175c0.394,0,0.804,0.206,1.232,0.618V4.25c-0.483-0.24-0.949-0.36-1.397-0.36
			c-0.652,0-1.177,0.194-1.573,0.582c-0.396,0.387-0.594,0.863-0.594,1.427c0,0.444,0.127,0.811,0.381,1.099
			c0.25,0.289,0.614,0.55,1.091,0.786c0.337,0.17,0.567,0.323,0.69,0.459c0.12,0.137,0.18,0.292,0.18,0.468
			c0,0.217-0.084,0.402-0.253,0.555c-0.169,0.152-0.372,0.229-0.608,0.229c-0.465,0-0.958-0.243-1.48-0.73v1.68
			c0.584,0.305,1.13,0.457,1.636,0.457c0.652,0,1.206-0.222,1.658-0.666c0.453-0.445,0.68-0.982,0.68-1.611
			c0-0.5-0.132-0.897-0.395-1.193C56.744,7.137,56.358,6.876,55.849,6.649z M62.646,6.625H61.39V4.001h-1.572v6.79h1.572V7.949
			h1.257v2.842h1.587v-6.79h-1.587V6.625z M71.338,5.583c0.547-0.228,0.957-0.526,1.228-0.897c0.271-0.371,0.407-0.814,0.407-1.328
			c0-0.682-0.227-1.229-0.678-1.645c-0.453-0.414-1.043-0.622-1.771-0.622h-3.45v9.7h3.117c1.052,0,1.889-0.251,2.508-0.754
			s0.928-1.181,0.928-2.034c0-0.695-0.189-1.244-0.57-1.647C72.676,5.952,72.104,5.694,71.338,5.583z M69.334,2.976h0.425
			c0.311,0,0.543,0.071,0.695,0.212c0.153,0.142,0.229,0.354,0.229,0.636c0,0.311-0.098,0.554-0.295,0.73s-0.465,0.264-0.804,0.264
			h-0.251V2.976z M70.966,8.57c-0.239,0.211-0.539,0.316-0.901,0.316h-0.73V6.62h0.73c0.357,0,0.656,0.103,0.897,0.309
			c0.241,0.207,0.362,0.481,0.362,0.824C71.324,8.086,71.204,8.359,70.966,8.57z M76.646,10.791h1.598v-6.79h-1.598V10.791z
			 M80.629,5.379h1.329v5.412h1.582V5.379h1.379V4.001h-4.29V5.379z M90.708,7.428c-0.263-0.292-0.649-0.552-1.159-0.779
			c-0.309-0.137-0.52-0.263-0.633-0.38c-0.117-0.117-0.176-0.256-0.176-0.418c0-0.166,0.072-0.307,0.215-0.423
			c0.143-0.117,0.312-0.175,0.506-0.175c0.394,0,0.804,0.206,1.232,0.618V4.25c-0.483-0.24-0.949-0.36-1.397-0.36
			c-0.652,0-1.177,0.194-1.573,0.582c-0.396,0.387-0.594,0.863-0.594,1.427c0,0.444,0.127,0.811,0.381,1.099
			c0.25,0.289,0.614,0.55,1.091,0.786c0.337,0.17,0.567,0.323,0.69,0.459c0.12,0.137,0.18,0.292,0.18,0.468
			c0,0.217-0.084,0.402-0.253,0.555c-0.169,0.152-0.372,0.229-0.608,0.229c-0.465,0-0.958-0.243-1.48-0.73v1.68
			c0.584,0.305,1.13,0.457,1.636,0.457c0.653,0,1.206-0.222,1.658-0.666c0.453-0.445,0.68-0.982,0.68-1.611
			C91.103,8.121,90.971,7.724,90.708,7.428z"/>
	</g>
</g>
<g id="The_Place_to_be_copy" opacity="0.702">
	<g>
		<path d="M26.079,13.558h1.068v3.024h0.393v-3.024h1.068V13.21h-2.529V13.558z M33.2,14.645h-1.777V13.21H31.03v3.372h0.393v-1.587
			H33.2v1.587h0.393V13.21H33.2V14.645z M36.432,16.582h1.881v-0.351h-1.488V14.99h1.398v-0.346h-1.398v-1.087h1.488V13.21h-1.881
			V16.582z M44.991,13.21h-0.875v3.372h0.392v-1.326h0.397c0.434,0,0.767-0.092,1-0.275s0.35-0.446,0.35-0.788
			C46.256,13.537,45.834,13.21,44.991,13.21z M45.617,14.751c-0.156,0.112-0.407,0.168-0.755,0.168h-0.353v-1.37h0.438
			c0.309,0,0.537,0.055,0.683,0.164c0.146,0.108,0.219,0.275,0.219,0.498C45.85,14.458,45.772,14.639,45.617,14.751z M49.269,13.21
			h-0.393v3.372h1.881v-0.354h-1.488V13.21z M54.113,13.196l-1.334,3.386h0.397l0.415-1.072h1.353l0.42,1.072h0.406l-1.327-3.386
			H54.113z M53.73,15.156l0.397-1.045c0.062-0.177,0.111-0.339,0.145-0.486c0.054,0.192,0.106,0.354,0.157,0.486l0.393,1.045H53.73z
			 M59.594,13.512c0.255,0,0.511,0.061,0.766,0.18l0.166-0.336c-0.265-0.13-0.573-0.194-0.928-0.194
			c-0.332,0-0.621,0.071-0.866,0.212c-0.245,0.142-0.433,0.344-0.563,0.604c-0.13,0.262-0.194,0.566-0.194,0.914
			c0,0.555,0.135,0.983,0.405,1.285c0.27,0.301,0.653,0.452,1.149,0.452c0.344,0,0.632-0.044,0.866-0.132v-0.344
			c-0.302,0.085-0.57,0.127-0.806,0.127c-0.383,0-0.678-0.12-0.885-0.361c-0.207-0.24-0.311-0.582-0.311-1.023
			c0-0.429,0.107-0.767,0.322-1.014C58.93,13.636,59.223,13.512,59.594,13.512z M63.045,16.582h1.881v-0.351h-1.489V14.99h1.399
			v-0.346h-1.399v-1.087h1.489V13.21h-1.881V16.582z M70.307,13.558h1.069v3.024h0.392v-3.024h1.068V13.21h-2.529V13.558z
			 M76.643,13.156c-0.498,0-0.883,0.151-1.153,0.454c-0.271,0.302-0.406,0.728-0.406,1.276c0,0.554,0.135,0.982,0.405,1.286
			c0.27,0.304,0.653,0.456,1.15,0.456c0.486,0,0.865-0.155,1.139-0.464c0.273-0.31,0.41-0.733,0.41-1.273
			c0-0.542-0.137-0.966-0.409-1.273S77.128,13.156,76.643,13.156z M77.485,15.932c-0.19,0.235-0.473,0.354-0.847,0.354
			c-0.371,0-0.653-0.118-0.849-0.354c-0.194-0.236-0.292-0.582-0.292-1.039c0-0.451,0.098-0.794,0.292-1.03
			c0.195-0.236,0.479-0.354,0.853-0.354s0.654,0.118,0.844,0.353c0.19,0.234,0.285,0.578,0.285,1.032
			C77.771,15.35,77.676,15.696,77.485,15.932z M85.564,14.815v-0.023c0.214-0.038,0.377-0.122,0.488-0.252
			c0.111-0.131,0.168-0.295,0.168-0.495c0-0.289-0.101-0.501-0.301-0.635c-0.199-0.134-0.523-0.2-0.972-0.2h-0.953v3.372h1.177
			c0.367,0,0.651-0.084,0.855-0.254c0.204-0.169,0.306-0.404,0.306-0.705C86.333,15.172,86.077,14.903,85.564,14.815z
			 M84.388,13.549h0.577c0.295,0,0.511,0.042,0.646,0.126c0.135,0.084,0.203,0.22,0.203,0.409c0,0.206-0.062,0.353-0.183,0.439
			c-0.122,0.087-0.321,0.13-0.598,0.13h-0.646V13.549z M85.707,16.09c-0.138,0.105-0.343,0.158-0.615,0.158h-0.704v-1.262h0.672
			c0.287,0,0.502,0.049,0.643,0.147s0.211,0.252,0.211,0.461C85.913,15.819,85.845,15.984,85.707,16.09z M90.853,13.558V13.21
			h-1.881v3.372h1.881v-0.351h-1.488V14.99h1.398v-0.346h-1.398v-1.087H90.853z"/>
	</g>
</g>
</svg>
