<?xml version="1.0" encoding="utf-8"?>
<!-- Generator: Adobe Illustrator 16.0.4, SVG Export Plug-In . SVG Version: 6.00 Build 0)  -->
<!DOCTYPE svg PUBLIC "-//W3C//DTD SVG 1.1//EN" "http://www.w3.org/Graphics/SVG/1.1/DTD/svg11.dtd">
<svg version="1.1" id="Group_1_1_" xmlns="http://www.w3.org/2000/svg" xmlns:xlink="http://www.w3.org/1999/xlink" x="0px" y="0px"
	 width="50px" height="50px" viewBox="0 0 50 50" enable-background="new 0 0 50 50" xml:space="preserve">
<g id="Ellipse_1_copy_3">
	<g>
		<circle fill="#FFC333" cx="25" cy="25" r="25"/>
	</g>
</g>
<g id="Ellipse_1_copy_4">
	<g>
		<path fill="#FFA128" d="M25,4C13.402,4,4,13.402,4,25s9.402,21,21,21c11.598,0,21-9.402,21-21S36.598,4,25,4z M25,44
			C14.507,44,6,35.493,6,25S14.507,6,25,6s19,8.507,19,19S35.493,44,25,44z"/>
	</g>
</g>
<g id="Group_3_copy_1_">
	<g id="B">
		<g>
			<path fill="#FFA128" d="M33.203,25.07v-0.2c1.562-0.273,3.027-1.457,3.027-3.699c0-2.653-2.124-4.173-5.213-4.173h-5.788
				c1.131,0.77,1.964,1.818,2.537,3.089h2.103c1.295,0,2.101,0.697,2.101,1.856c0,1.108-0.745,1.894-2.381,1.894h-0.903
				c0.045,0.507,0.075,1.026,0.075,1.567c0,0.413-0.016,0.815-0.042,1.21h1.334c1.637,0,2.503,0.835,2.503,2.155
				c0,1.37-0.964,2.143-2.771,2.143h-2.027v-0.12c-0.59,1.322-1.452,2.413-2.62,3.209h6.076c3.138,0,5.787-1.693,5.787-4.833
				C37,26.465,35.01,25.182,33.203,25.07z"/>
		</g>
	</g>
	<g id="D">
		<g>
			<path fill="#FFA128" d="M19.748,16.998H13v17.003h6.748c5.347,0,7.551-3.513,7.551-8.582
				C27.299,20.386,25.131,16.998,19.748,16.998z M19.017,30.501h-1.645V20.498h1.645c3.106,0,3.812,2.367,3.812,5.032
				C22.829,29.642,21.197,30.501,19.017,30.501z"/>
		</g>
	</g>
</g>
</svg>
