<?xml version="1.0" encoding="utf-8"?>
<!-- Generator: Adobe Illustrator 16.0.4, SVG Export Plug-In . SVG Version: 6.00 Build 0)  -->
<!DOCTYPE svg PUBLIC "-//W3C//DTD SVG 1.1//EN" "http://www.w3.org/Graphics/SVG/1.1/DTD/svg11.dtd">
<svg version="1.1" xmlns="http://www.w3.org/2000/svg" xmlns:xlink="http://www.w3.org/1999/xlink" x="0px" y="0px" width="48px"
	 height="48px" viewBox="0 0 48 48" enable-background="new 0 0 48 48" xml:space="preserve">
<g id="Rounded_Rectangle_3_copy_2_1_" enable-background="new    ">
	<g id="Rounded_Rectangle_3_copy_2">
		<g>
			<path fill="#353535" d="M32.485,21.586l-7.071-7.071c-0.781-0.781-2.047-0.781-2.828,0l-7.071,7.071
				c-0.781,0.781-0.781,2.047,0,2.828c0.781,0.781,2.047,0.781,2.829,0L22,20.757V41c0,1.104,0.896,2,2,2s2-0.896,2-2V20.757
				l3.656,3.657c0.781,0.781,2.048,0.781,2.829,0C33.266,23.633,33.266,22.367,32.485,21.586z"/>
		</g>
	</g>
</g>
<g id="Rounded_Rectangle_3_copy_3_1_" enable-background="new    ">
	<g id="Rounded_Rectangle_3_copy_3">
		<g>
			<path fill="#353535" d="M37.424,6.586v0.086C37.059,6.263,36.533,6,35.941,6H11.996C10.894,6,10,6.896,10,8s0.894,2,1.996,2
				h23.946c0.592,0,1.117-0.263,1.482-0.672v0.086C38.203,8.633,38.203,7.367,37.424,6.586z"/>
		</g>
	</g>
</g>
</svg>
