<?xml version="1.0" encoding="utf-8"?>
<!-- Generator: Adobe Illustrator 16.0.4, SVG Export Plug-In . SVG Version: 6.00 Build 0)  -->
<!DOCTYPE svg PUBLIC "-//W3C//DTD SVG 1.1//EN" "http://www.w3.org/Graphics/SVG/1.1/DTD/svg11.dtd">
<svg version="1.1" id="Rounded_Rectangle_1_copy_2_1_"
	 xmlns="http://www.w3.org/2000/svg" xmlns:xlink="http://www.w3.org/1999/xlink" x="0px" y="0px" width="48px" height="48px"
	 viewBox="0 0 48 48" enable-background="new 0 0 48 48" xml:space="preserve">
<g id="Rounded_Rectangle_1_copy_2">
	<g>
		<path fill="#353535" d="M32,14h-4c-1.104,0-2,0.896-2,2v4c0,1.104,0.896,2,2,2c0,0,0.996,0,2,0c0,2.549-3,4-3,4v2c0,0,7,0.721,7-8
			v-4C34,14.896,33.104,14,32,14z M39,6H9c-4.418,0-8,3.582-8,8v14c0,4.418,3.582,8,8,8h8.407l4.181,4.824
			c1.325,1.528,3.473,1.528,4.798,0L30.566,36H39c4.418,0,8-3.582,8-8V14C47,9.582,43.418,6,39,6z M43,28c0,2.209-1.791,4-4,4H28
			l-4,6l-4-6H9c-2.209,0-4-1.791-4-4V14c0-2.209,1.791-4,4-4h30c2.209,0,4,1.791,4,4V28z M20,14h-4c-1.104,0-2,0.896-2,2v4
			c0,1.104,0.896,2,2,2c0,0,0.996,0,2,0c0,2.549-3,4-3,4v2c0,0,7,0.721,7-8v-4C22,14.896,21.104,14,20,14z"/>
	</g>
</g>
</svg>
