<?xml version="1.0" encoding="utf-8"?>
<!-- Generator: Adobe Illustrator 16.0.4, SVG Export Plug-In . SVG Version: 6.00 Build 0)  -->
<!DOCTYPE svg PUBLIC "-//W3C//DTD SVG 1.1//EN" "http://www.w3.org/Graphics/SVG/1.1/DTD/svg11.dtd">
<svg version="1.1" xmlns="http://www.w3.org/2000/svg" xmlns:xlink="http://www.w3.org/1999/xlink" x="0px" y="0px" width="48px"
	 height="48px" viewBox="0 0 48 48" enable-background="new 0 0 48 48" xml:space="preserve">
<g id="Rounded_Rectangle_1_copy_4_1_" enable-background="new    ">
	<g id="Rounded_Rectangle_1_copy_4">
		<g>
			<path fill="#00BA75" d="M44.275,10.649l-1.916-1.914c-1.057-1.058-2.885-0.944-4.084,0.254L17.537,29.725l-7.835-7.834
				c-1.198-1.198-3.023-1.315-4.077-0.262l-1.907,1.907c-1.054,1.054-0.937,2.878,0.261,4.075l9.75,9.748c0,0.001,0,0.001,0,0.001
				l1.915,1.915c0,0.001,0.001,0.001,0.002,0.002l0.459,0.459l0.07-0.07c1.068,0.599,2.535,0.372,3.552-0.645l24.293-24.288
				C45.219,13.535,45.332,11.707,44.275,10.649z"/>
		</g>
	</g>
</g>
<g id="Shape_1_1_" display="none" enable-background="new    ">
	<g id="Shape_1" display="inline">
		<g>
			<path fill="#353535" d="M24,8C10.745,8,0,18.967,0,24s10.745,16,24,16s24-10.945,24-16S37.255,8,24,8z M24,36
				C12.954,36,4,25.887,4,24c0-1.816,8.3-11.253,18.775-11.955C23.541,12.989,24,14.19,24,15.5c0,3.037-2.462,5.5-5.5,5.5
				c-2.065,0-3.863-1.14-4.803-2.824C13.254,19.369,13,20.653,13,22c0,6.075,4.925,11,11,11s11-4.925,11-11
				c0-3.649-1.785-6.875-4.521-8.875C38.344,15.808,44,22.493,44,24C44,25.896,35.046,36,24,36z"/>
		</g>
	</g>
</g>
<g id="Rounded_Rectangle_1_copy_3_1_" display="none" enable-background="new    ">
	<g id="Rounded_Rectangle_1_copy_3" display="inline">
		<g>
			<path fill="#D23131" d="M38.848,33.156l-9.171-9.171l9.156-9.156c1.184-1.184,1.296-2.99,0.251-4.035l-1.893-1.893
				c-1.045-1.045-2.852-0.933-4.035,0.251L24,18.309l-9.156-9.156c-1.184-1.184-2.99-1.296-4.036-0.251l-1.892,1.893
				c-1.045,1.045-0.933,2.852,0.251,4.035l9.156,9.156l-9.17,9.171c-1.184,1.184-1.296,2.99-0.251,4.035l1.892,1.893
				c1.045,1.045,2.852,0.933,4.035-0.251L24,29.662l9.171,9.171c1.184,1.184,2.99,1.296,4.035,0.251l1.892-1.893
				C40.143,36.146,40.031,34.34,38.848,33.156z"/>
		</g>
	</g>
</g>
</svg>
