<?xml version="1.0" encoding="utf-8"?>
<!-- Generator: Adobe Illustrator 16.0.4, SVG Export Plug-In . SVG Version: 6.00 Build 0)  -->
<!DOCTYPE svg PUBLIC "-//W3C//DTD SVG 1.1//EN" "http://www.w3.org/Graphics/SVG/1.1/DTD/svg11.dtd">
<svg version="1.1" id="Rounded_Rectangle_1_copy_5_1_"
	 xmlns="http://www.w3.org/2000/svg" xmlns:xlink="http://www.w3.org/1999/xlink" x="0px" y="0px" width="48px" height="48px"
	 viewBox="0 0 48 48" enable-background="new 0 0 48 48" xml:space="preserve">
<g id="Rounded_Rectangle_1_copy_5">
	<g>
		<path fill="#353535" d="M20.952,26.311L21,32h6l13.942-14.143l-5.767-5.768L20.952,26.311z M32,32.308
			C32,34.347,30.342,36,28.297,36H10.704C8.658,36,7,34.347,7,32.308V15.692C7,13.653,8.658,12,10.704,12h17.593
			c0.573,0,1.109,0.141,1.594,0.373l3.393-3.391C32.339,8.363,31.213,8,30,8H9c-3.313,0-6,2.687-6,6v20c0,3.313,2.687,6,6,6h21
			c3.313,0,6-2.687,6-6v-6.058L32,32V32.308z M44.275,10.649l-1.916-1.914c-1.057-1.058-2.885-0.944-4.084,0.254l-1.686,1.686
			l5.756,5.758l1.676-1.699C45.219,13.535,45.332,11.707,44.275,10.649z"/>
	</g>
</g>
</svg>
