<?xml version="1.0" encoding="utf-8"?>
<!-- Generator: Adobe Illustrator 16.0.4, SVG Export Plug-In . SVG Version: 6.00 Build 0)  -->
<!DOCTYPE svg PUBLIC "-//W3C//DTD SVG 1.1//EN" "http://www.w3.org/Graphics/SVG/1.1/DTD/svg11.dtd">
<svg version="1.1" xmlns="http://www.w3.org/2000/svg" xmlns:xlink="http://www.w3.org/1999/xlink" x="0px" y="0px" width="336px"
	 height="48px" viewBox="0 0 336 48" enable-background="new 0 0 336 48" xml:space="preserve">
<g id="Rounded_Rectangle_1_copy_4_1_" enable-background="new    ">
	<g id="Rounded_Rectangle_1_copy_4">
		<g>
			<path fill="#00BA75" d="M284.275,10.649l-1.916-1.914c-1.057-1.058-2.885-0.944-4.083,0.254l-20.739,20.735l-7.836-7.834
				c-1.197-1.198-3.022-1.315-4.076-0.262l-1.907,1.907c-1.054,1.054-0.937,2.878,0.261,4.075l12.127,12.125l0.07-0.07
				c1.068,0.599,2.535,0.372,3.553-0.645l24.293-24.288C285.219,13.535,285.332,11.707,284.275,10.649z"/>
		</g>
	</g>
</g>
<g id="Rounded_Rectangle_1_copy_6_1_" enable-background="new    ">
	<g id="Rounded_Rectangle_1_copy_6">
		<g>
			<path fill="#353535" d="M116,26v7h7l15.179-16.022l-6.289-6.273L116,26z M129,33c0,2.209-2.778,5-5,5h-18c-2.222,0-5-2.791-5-5
				V15c0-2.209,2.778-5,5-5h19c0.587,0,1.142,0.199,1.642,0.526l3.642-3.584C129.279,6.351,128.15,6,127,6h-23c-3.6,0-7,3.41-7,7v22
				c0,3.59,3.4,8,7,8h23c3.6,0,7-4.41,7-8v-8.121l-5,5.101V33z M141.833,9.204l-2.08-2.074c-1.148-1.146-3.135-1.022-4.436,0.275
				L133.454,9.2l6.218,6.202L141,14C142.301,12.702,142.982,10.35,141.833,9.204z"/>
		</g>
	</g>
</g>
<g id="quote_1_" enable-background="new    ">
	<g id="quote">
		<g>
			<path fill="#353535" d="M14,23h4l-2,4c0,0,6,0.632,6-4c0-3.789,0-8,0-8h-8V23z M39,6H9c-4.418,0-8,3.582-8,8v14
				c0,4.418,3.582,8,8,8h9l4.659,6.989l2.658,0.034L30,36h9c4.418,0,8-3.582,8-8V14C47,9.582,43.418,6,39,6z M43,28
				c0,2.209-1.791,4-4,4H28l-4,5l-4-5H9c-2.209,0-4-1.791-4-4V14c0-2.209,1.791-4,4-4h30c2.209,0,4,1.791,4,4V28z M26,23h4l-2,4
				c0,0,6,0.632,6-4c0-3.789,0-8,0-8h-8V23z"/>
		</g>
	</g>
</g>
<g id="report_1_">
	<g id="Rectangle_4_copy_2">
		<g>
			<path fill="#353535" d="M87,6H57c-4.418,0-8,3.582-8,8v14c0,4.418,3.582,8,8,8h9l4.659,6.989l2.658,0.034L78,36h9
				c4.418,0,8-3.582,8-8V14C95,9.582,91.418,6,87,6z M91,28c0,2.209-1.791,4-4,4H76l-4,5l-4-5H57c-2.209,0-4-1.791-4-4V14
				c0-2.209,1.791-4,4-4h30c2.209,0,4,1.791,4,4V28z"/>
		</g>
	</g>
	<g id="Ellipse_1">
		<g>
			<circle fill="#D23131" cx="82" cy="14" r="13"/>
		</g>
	</g>
	<g id="Rounded_Rectangle_1">
		<g>
			<path fill="#FFFFFF" d="M82,5c-1.104,0-2,0.896-2,2v7c0,1.104,0.896,2,2,2s2-0.896,2-2V7C84,5.896,83.104,5,82,5z"/>
		</g>
	</g>
	<g id="Rounded_Rectangle_2">
		<g>
			<circle fill="#FFFFFF" cx="82" cy="21" r="2"/>
		</g>
	</g>
</g>
<g id="Rounded_Rectangle_3_copy_5_1_" enable-background="new    ">
	<g id="Rounded_Rectangle_3_copy_5">
		<g>
			<path fill="#353535" d="M183.405,20.609L169.387,6.564c-0.774-0.775-2.03-0.775-2.804,0l-14.019,14.045
				c-0.774,0.775-0.774,2.033,0,2.809c0.774,0.776,2.03,0.776,2.804,0L166,12.767V41c0,1.104,0.896,2,2,2s2-0.896,2-2V12.797
				l10.602,10.621c0.774,0.776,2.029,0.776,2.804,0C184.18,22.643,184.18,21.385,183.405,20.609z"/>
		</g>
	</g>
</g>
<g id="Shape_1_1_" enable-background="new    ">
	<g id="Shape_1">
		<g>
			<path fill="#353535" d="M216,8c-13.255,0-24,10.967-24,16s10.745,16,24,16s24-10.945,24-16S229.255,8,216,8z M216,36
				c-11.046,0-20-10.113-20-12c0-1.816,8.3-11.253,18.775-11.955C215.54,12.989,216,14.19,216,15.5c0,3.037-2.463,5.5-5.5,5.5
				c-2.065,0-3.862-1.141-4.803-2.824C205.254,19.369,205,20.653,205,22c0,6.075,4.925,11,11,11s11-4.925,11-11
				c0-3.649-1.785-6.875-4.521-8.875C230.344,15.808,236,22.493,236,24C236,25.896,227.046,36,216,36z"/>
		</g>
	</g>
</g>
<g id="Rounded_Rectangle_1_copy_3_1_" enable-background="new    ">
	<g id="Rounded_Rectangle_1_copy_3">
		<g>
			<path fill="#D23131" d="M326.848,33.156l-9.171-9.171l9.156-9.156c1.184-1.184,1.296-2.99,0.251-4.035l-1.893-1.893
				c-1.045-1.045-2.852-0.933-4.035,0.251L312,18.309l-9.156-9.156c-1.184-1.184-2.99-1.296-4.035-0.251l-1.893,1.893
				c-1.045,1.045-0.933,2.852,0.251,4.035l9.156,9.156l-9.171,9.171c-1.184,1.184-1.295,2.99-0.25,4.035l1.892,1.893
				c1.045,1.045,2.852,0.933,4.035-0.251L312,29.662l9.171,9.171c1.184,1.184,2.99,1.296,4.035,0.251l1.893-1.893
				C328.144,36.146,328.031,34.34,326.848,33.156z"/>
		</g>
	</g>
</g>
</svg>
