<?xml version="1.0" encoding="utf-8"?>
<!-- Generator: Adobe Illustrator 16.0.4, SVG Export Plug-In . SVG Version: 6.00 Build 0)  -->
<!DOCTYPE svg PUBLIC "-//W3C//DTD SVG 1.1//EN" "http://www.w3.org/Graphics/SVG/1.1/DTD/svg11.dtd">
<svg version="1.1" xmlns="http://www.w3.org/2000/svg" xmlns:xlink="http://www.w3.org/1999/xlink" x="0px" y="0px" width="48px"
	 height="48px" viewBox="0 0 48 48" enable-background="new 0 0 48 48" xml:space="preserve">
<g id="Rectangle_4_copy_1_" enable-background="new    ">
	<g id="Rectangle_4_copy">
		<g>
			<path fill="#353535" d="M39,6H9c-4.418,0-8,3.582-8,8v14c0,4.418,3.582,8,8,8h9l4.659,6.989l2.658,0.034L30,36h9
				c4.418,0,8-3.582,8-8V14C47,9.582,43.418,6,39,6z M43,28c0,2.209-1.791,4-4,4H28l-4,5l-4-5H9c-2.209,0-4-1.791-4-4V14
				c0-2.209,1.791-4,4-4h30c2.209,0,4,1.791,4,4V28z M14,23h4l-2,4c0,0,6,0.632,6-4c0-3.789,0-8,0-8h-8V23z M26,23h4l-2,4
				c0,0,6,0.632,6-4c0-3.789,0-8,0-8h-8V23z"/>
		</g>
	</g>
</g>
<g id="Rectangle_4_copy_2_1_" enable-background="new    ">
	<g id="Rectangle_4_copy_2">
		<g>
			<path fill="#353535" d="M39,6H9c-4.418,0-8,3.582-8,8v14c0,4.418,3.582,8,8,8h9l4.659,6.989l2.658,0.034L30,36h9
				c4.418,0,8-3.582,8-8V14C47,9.582,43.418,6,39,6z M43,28c0,2.209-1.791,4-4,4H28l-4,5l-4-5H9c-2.209,0-4-1.791-4-4V14
				c0-2.209,1.791-4,4-4h30c2.209,0,4,1.791,4,4V28z"/>
		</g>
	</g>
</g>
<g id="Ellipse_1_1_" display="none" enable-background="new    ">
	<g id="Ellipse_1" display="inline">
		<g>
			<circle fill="#D23131" cx="34" cy="14" r="13"/>
		</g>
	</g>
</g>
<g id="Rounded_Rectangle_1_1_" display="none" enable-background="new    ">
	<g id="Rounded_Rectangle_1" display="inline">
		<g>
			<path fill="#FFFFFF" d="M34,5c-1.104,0-2,0.896-2,2v7c0,1.104,0.896,2,2,2s2-0.896,2-2V7C36,5.896,35.104,5,34,5z"/>
		</g>
	</g>
</g>
<g id="Rounded_Rectangle_2_1_" display="none" enable-background="new    ">
	<g id="Rounded_Rectangle_2" display="inline">
		<g>
			<circle fill="#FFFFFF" cx="34" cy="21" r="2"/>
		</g>
	</g>
</g>
</svg>
