<?xml version="1.0" encoding="utf-8"?>
<!-- Generator: Adobe Illustrator 16.0.4, SVG Export Plug-In . SVG Version: 6.00 Build 0)  -->
<!DOCTYPE svg PUBLIC "-//W3C//DTD SVG 1.1//EN" "http://www.w3.org/Graphics/SVG/1.1/DTD/svg11.dtd">
<svg version="1.1" id="Rounded_Rectangle_3_copy_6_1_"
	 xmlns="http://www.w3.org/2000/svg" xmlns:xlink="http://www.w3.org/1999/xlink" x="0px" y="0px" width="48px" height="48px"
	 viewBox="0 0 48 48" enable-background="new 0 0 48 48" xml:space="preserve">
<g id="Rounded_Rectangle_3_copy_6">
	<g>
		<path fill="#353535" d="M35,8c-1.104,0-2,0.896-2,2v28c0,1.104,0.896,2,2,2s2-0.896,2-2V10C37,8.896,36.104,8,35,8z M14.391,8.563
			c-0.775-0.774-2.033-0.774-2.809,0c-0.775,0.774-0.775,2.029,0,2.804l12.641,12.618L11.582,36.602
			c-0.775,0.774-0.775,2.029,0,2.804c0.776,0.774,2.034,0.774,2.809,0l14.045-14.019c0.775-0.774,0.775-2.03,0-2.804L14.391,8.563z"
			/>
	</g>
</g>
</svg>
