<?xml version="1.0" encoding="utf-8"?>
<!-- Generator: Adobe Illustrator 16.0.4, SVG Export Plug-In . SVG Version: 6.00 Build 0)  -->
<!DOCTYPE svg PUBLIC "-//W3C//DTD SVG 1.1//EN" "http://www.w3.org/Graphics/SVG/1.1/DTD/svg11.dtd">
<svg version="1.1" xmlns="http://www.w3.org/2000/svg" xmlns:xlink="http://www.w3.org/1999/xlink" x="0px" y="0px" width="48px"
	 height="48px" viewBox="0 0 48 48" enable-background="new 0 0 48 48" xml:space="preserve">
<g id="Rounded_Rectangle_3_copy_6_1_" display="none" enable-background="new    ">
	<g id="Rounded_Rectangle_3_copy_6" display="inline">
		<g>
			<path fill="#353535" d="M33,8c-1.104,0-2,0.896-2,2v13.806c-0.04-0.446-0.223-0.882-0.564-1.223L16.391,8.563
				c-0.775-0.774-2.033-0.774-2.809,0c-0.775,0.774-0.775,2.029,0,2.804l12.641,12.618L13.582,36.602
				c-0.775,0.774-0.775,2.029,0,2.804c0.776,0.774,2.034,0.774,2.809,0l14.045-14.019c0.342-0.342,0.524-0.778,0.564-1.224V38
				c0,1.104,0.896,2,2,2s2-0.896,2-2V10C35,8.896,34.104,8,33,8z"/>
		</g>
	</g>
</g>
<g id="Rounded_Rectangle_3_copy_7_1_" enable-background="new    ">
	<g id="Rounded_Rectangle_3_copy_7">
		<g>
			<path fill="#353535" d="M32.436,22.583L18.391,8.563c-0.775-0.774-2.033-0.774-2.809,0c-0.775,0.774-0.775,2.029,0,2.804
				l12.641,12.618L15.582,36.602c-0.775,0.774-0.775,2.029,0,2.804c0.776,0.774,2.034,0.774,2.809,0l14.045-14.019
				C33.211,24.612,33.211,23.356,32.436,22.583z"/>
		</g>
	</g>
</g>
</svg>
