<?xml version="1.0" encoding="utf-8"?>
<!-- Generator: Adobe Illustrator 16.0.4, SVG Export Plug-In . SVG Version: 6.00 Build 0)  -->
<!DOCTYPE svg PUBLIC "-//W3C//DTD SVG 1.1//EN" "http://www.w3.org/Graphics/SVG/1.1/DTD/svg11.dtd">
<svg version="1.1" id="RSS_copy_4_1_" xmlns="http://www.w3.org/2000/svg" xmlns:xlink="http://www.w3.org/1999/xlink" x="0px"
	 y="0px" width="48px" height="48px" viewBox="0 0 48 48" enable-background="new 0 0 48 48" xml:space="preserve">
<g id="Ellipse_3_copy_4">
	<g>
		<path d="M12.5,28C8.358,28,5,31.357,5,35.5S8.358,43,12.5,43s7.5-3.357,7.5-7.5S16.642,28,12.5,28z M12.5,40
			C10.015,40,8,37.985,8,35.5s2.015-4.5,4.5-4.5s4.5,2.015,4.5,4.5S14.985,40,12.5,40z"/>
	</g>
</g>
<g id="Ellipse_3_copy_5">
	<g>
		<path d="M5,16v3c13.255,0,24,10.745,24,24h3C32,28.088,19.912,16,5,16z"/>
	</g>
</g>
<g id="Ellipse_3_copy_6">
	<g>
		<path d="M5,5v3c19.33,0,35,15.67,35,35h3C43,22.014,25.986,5,5,5z"/>
	</g>
</g>
</svg>
