<?xml version="1.0" encoding="utf-8"?>
<!-- Generator: Adobe Illustrator 16.0.4, SVG Export Plug-In . SVG Version: 6.00 Build 0)  -->
<!DOCTYPE svg PUBLIC "-//W3C//DTD SVG 1.1//EN" "http://www.w3.org/Graphics/SVG/1.1/DTD/svg11.dtd">
<svg version="1.1" xmlns="http://www.w3.org/2000/svg" xmlns:xlink="http://www.w3.org/1999/xlink" x="0px" y="0px" width="48px"
	 height="48px" viewBox="0 0 48 48" enable-background="new 0 0 48 48" xml:space="preserve">
<g id="Inbox_1_" display="none">
	<g id="Rounded_Rectangle_1" display="inline">
		<g>
			<path d="M44,5H4C1.791,5,0,6.791,0,9v1v3.759V39c0,2.209,1.791,4,4,4h40c2.209,0,4-1.791,4-4V13.73v-3.725V9
				C48,6.791,46.209,5,44,5z M45,38c0,1.104-0.896,2-2,2H5c-1.104,0-2-0.896-2-2V16.479l12.479,11.312
				c4.697,4.258,12.312,4.258,17.01,0L45,16.45V38z M30.77,25.453c-3.737,3.35-9.795,3.35-13.532,0L3,12.689V10c0-1.104,0.896-2,2-2
				h38c1.104,0,2,0.896,2,2v2.695L30.77,25.453z"/>
		</g>
	</g>
</g>
<g id="RSS_copy_4_1_" display="none">
	<g id="Ellipse_3_copy_4" display="inline">
		<g>
			<path d="M12.5,28C8.358,28,5,31.357,5,35.5S8.358,43,12.5,43s7.5-3.357,7.5-7.5S16.642,28,12.5,28z M12.5,40
				C10.015,40,8,37.985,8,35.5s2.015-4.5,4.5-4.5s4.5,2.015,4.5,4.5S14.985,40,12.5,40z"/>
		</g>
	</g>
	<g id="Ellipse_3_copy_5" display="inline">
		<g>
			<path d="M5,16v3c13.255,0,24,10.745,24,24h3C32,28.088,19.912,16,5,16z"/>
		</g>
	</g>
	<g id="Ellipse_3_copy_6" display="inline">
		<g>
			<path d="M5,5v3c19.33,0,35,15.67,35,35h3C43,22.014,25.986,5,5,5z"/>
		</g>
	</g>
</g>
<g id="Settings_copy_1_">
	<g id="Ellipse_5">
		<g>
			<path fill="#FFFFFF" d="M24,14c-5.523,0-10,4.478-10,10s4.477,10,10,10c5.523,0,10-4.478,10-10S29.523,14,24,14z M24,31
				c-3.866,0-7-3.134-7-7s3.134-7,7-7s7,3.134,7,7S27.866,31,24,31z M45.494,19.152l-3.324-0.707c-0.358-1.175-0.83-2.3-1.398-3.367
				l1.852-2.853c0.811-1.248,0.771-2.772-0.438-3.982L39.74,5.8c-1.238-1.238-2.733-1.249-3.982-0.438l-2.858,1.856
				c-1.062-0.563-2.181-1.032-3.349-1.389l-0.707-3.322C28.534,1.051,27.43,0,25.719,0h-3.458c-1.751,0-2.816,1.051-3.126,2.507
				l-0.708,3.328c-1.174,0.36-2.298,0.832-3.364,1.401l-2.846-1.85C10.97,4.575,9.476,4.583,8.242,5.817L5.805,8.254
				c-1.206,1.206-1.242,2.728-0.431,3.976l1.853,2.851c-0.571,1.072-1.043,2.204-1.403,3.386l-3.318,0.703
				C1.051,19.479,0,20.54,0,22.285v3.446c0,1.705,1.051,2.807,2.506,3.116l3.323,0.704c0.358,1.175,0.83,2.3,1.397,3.366
				l-1.853,2.853c-0.811,1.248-0.802,2.743,0.435,3.979l2.44,2.44c1.208,1.208,2.731,1.245,3.979,0.435l2.852-1.853
				c1.066,0.568,2.192,1.039,3.367,1.398l0.706,3.322C19.461,46.949,20.525,48,22.273,48h3.451c1.709,0,2.812-1.051,3.121-2.507
				l0.705-3.322c1.177-0.358,2.303-0.83,3.369-1.398l2.852,1.853c1.248,0.811,2.771,0.773,3.979-0.435l2.44-2.44
				c1.236-1.236,1.246-2.731,0.435-3.979l-1.853-2.852c0.568-1.067,1.039-2.192,1.397-3.368l3.323-0.705
				C46.949,28.536,48,27.433,48,25.725v-3.451C48,20.524,46.949,19.462,45.494,19.152z M45,26l-5.349,1.273
				c-0.413,1.985-1.197,3.834-2.271,5.476l2.884,4.686l-2.828,2.829l-4.681-2.88c-1.643,1.078-3.494,1.866-5.484,2.279L26,45h-4
				l-1.271-5.337c-1.99-0.413-3.842-1.201-5.484-2.279l-4.68,2.88l-2.829-2.829l2.883-4.686c-1.073-1.642-1.857-3.49-2.271-5.476
				L3,26v-4l5.349-1.273c0.414-1.986,1.197-3.834,2.271-5.476l-2.883-4.686l2.829-2.829l4.68,2.88
				c1.643-1.079,3.494-1.866,5.484-2.28L22,3h4l1.271,5.337c1.99,0.414,3.842,1.201,5.484,2.28l4.681-2.88l2.828,2.829l-2.884,4.686
				c1.074,1.641,1.858,3.49,2.271,5.476L45,22V26z"/>
		</g>
	</g>
</g>
</svg>
