<?xml version="1.0" encoding="utf-8"?>
<!-- Generator: Adobe Illustrator 16.0.4, SVG Export Plug-In . SVG Version: 6.00 Build 0)  -->
<!DOCTYPE svg PUBLIC "-//W3C//DTD SVG 1.1//EN" "http://www.w3.org/Graphics/SVG/1.1/DTD/svg11.dtd">
<svg version="1.1" id="Inbox_1_" xmlns="http://www.w3.org/2000/svg" xmlns:xlink="http://www.w3.org/1999/xlink" x="0px" y="0px"
	 width="48px" height="48px" viewBox="0 0 48 48" enable-background="new 0 0 48 48" xml:space="preserve">
<g id="Rounded_Rectangle_1">
	<g>
		<path d="M44,5H4C1.791,5,0,6.791,0,9v1v3.759V39c0,2.209,1.791,4,4,4h40c2.209,0,4-1.791,4-4V13.73v-3.725V9
			C48,6.791,46.209,5,44,5z M45,38c0,1.104-0.896,2-2,2H5c-1.104,0-2-0.896-2-2V16.479l12.479,11.312
			c4.697,4.258,12.312,4.258,17.01,0L45,16.45V38z M30.77,25.453c-3.737,3.35-9.795,3.35-13.532,0L3,12.689V10c0-1.104,0.896-2,2-2
			h38c1.104,0,2,0.896,2,2v2.695L30.77,25.453z"/>
	</g>
</g>
</svg>
